<svg width="64" height="51" viewBox="0 0 64 51" fill="none" xmlns="http://www.w3.org/2000/svg">
<path d="M8 24C11.3137 24 14 26.6863 14 30V51H1C0.447716 51 0 50.5523 0 50V24H8Z" fill="#059669"/>
<path d="M11 0C19.4824 0 27.0502 3.91249 32 10.0303C36.9498 3.91249 44.5176 0 53 0H63C63.5523 0 64 0.447715 64 1V12H53C44.7157 12 38 18.7157 38 27V51H26V27C26 18.7157 19.2843 12 11 12H0V1C0 0.447715 0.447715 0 1 0H11Z" fill="#059669"/>
<path d="M64 50C64 50.5523 63.5523 51 63 51H50V30C50 26.6863 52.6863 24 56 24H64V50Z" fill="#059669"/>
</svg>
