<svg width="199" height="51" viewBox="0 0 199 51" fill="none" xmlns="http://www.w3.org/2000/svg">
<path d="M8 24C11.3137 24 14 26.6863 14 30V51H1C0.447716 51 0 50.5523 0 50V24H8Z" fill="#28A265"/>
<path d="M11 0C19.4824 0 27.0502 3.91249 32 10.0303C36.9498 3.91249 44.5176 0 53 0H63C63.5523 0 64 0.447715 64 1V12H53C44.7157 12 38 18.7157 38 27V51H26V27C26 18.7157 19.2843 12 11 12H0V1C0 0.447715 0.447715 0 1 0H11Z" fill="#28A265"/>
<path d="M64 50C64 50.5523 63.5523 51 63 51H50V30C50 26.6863 52.6863 24 56 24H64V50Z" fill="#28A265"/>
<path d="M71 6C71 2.68629 73.6863 0 77 0H84C84.5523 0 85 0.447715 85 1V50C85 50.5523 84.5523 51 84 51H72C71.4477 51 71 50.5523 71 50V6Z" fill="#28A265"/>
<path d="M139.22 2.62793C142.334 3.76128 143.94 7.20449 142.806 10.3184L128.239 50.342C128.095 50.7371 127.72 51 127.3 51H105.7C105.28 51 104.904 50.7371 104.76 50.342L90.1941 10.3203C89.0607 7.20645 90.6661 3.76324 93.78 2.62988L100.065 0.342077C100.584 0.153156 101.158 0.420745 101.347 0.939744L115.562 39.9973C115.881 40.8746 117.122 40.8746 117.441 39.9973L131.658 0.939657C131.847 0.420694 132.42 0.153111 132.939 0.341986L139.22 2.62793Z" fill="#28A265"/>
<path d="M160.359 50.0979C160.121 50.5961 159.523 50.8084 159.034 50.5516C153.98 47.8978 149.897 43.6951 147.391 38.547C144.739 33.0988 144.011 26.913 145.325 20.9979C146.639 15.0828 149.918 9.78722 154.627 5.97428C159.337 2.16135 165.198 0.0558927 171.258 0.00109719C177.317 -0.0536983 183.216 1.9454 187.993 5.67254C192.77 9.39969 196.145 14.6351 197.565 20.5255C198.986 26.4158 198.37 32.6138 195.817 38.1091C193.405 43.3016 189.399 47.5775 184.394 50.3223C183.91 50.5879 183.308 50.3864 183.06 49.8926L180.679 45.1392C179.119 42.0238 180.552 38.2802 182.693 35.5313C183.349 34.6892 183.912 33.7706 184.367 32.7901C185.718 29.8824 186.044 26.6028 185.292 23.486C184.54 20.3693 182.755 17.599 180.227 15.6269C177.699 13.6547 174.578 12.5969 171.372 12.6259C168.166 12.6549 165.064 13.769 162.572 15.7865C160.08 17.8041 158.345 20.6061 157.65 23.736C156.955 26.8659 157.34 30.139 158.743 33.0219C159.216 33.9939 159.796 34.9022 160.467 35.7324C162.657 38.442 164.157 42.1591 162.654 45.3022L160.359 50.0979Z" fill="#28A265"/>
</svg>
